<svg xmlns="http://www.w3.org/2000/svg" xmlns:xlink="http://www.w3.org/1999/xlink" width="500" zoomAndPan="magnify" viewBox="0 0 375 374.999991" height="500" preserveAspectRatio="xMidYMid meet" version="1.0"><defs><g/></defs><g fill="#cf3678" fill-opacity="1"><g transform="translate(63.101266, 202.663949)"><g><path d="M 13.75 -7.125 C 11.84375 -5.21875 9.816406 -3.9375 7.671875 -3.28125 C 5.535156 -2.632812 3.394531 -2.640625 1.25 -3.296875 C -0.894531 -3.953125 -2.941406 -5.253906 -4.890625 -7.203125 C -6.710938 -9.023438 -7.957031 -11.03125 -8.625 -13.21875 C -9.289062 -15.40625 -9.304688 -17.613281 -8.671875 -19.84375 C -8.035156 -22.070312 -6.75 -24.15625 -4.8125 -26.09375 C -2.894531 -28.007812 -0.894531 -29.285156 1.1875 -29.921875 C 3.269531 -30.554688 5.332031 -30.5625 7.375 -29.9375 C 9.414062 -29.3125 11.332031 -28.101562 13.125 -26.3125 C 14.21875 -25.21875 15.007812 -24.09375 15.5 -22.9375 C 15.988281 -21.78125 16.144531 -20.660156 15.96875 -19.578125 C 15.800781 -18.503906 15.300781 -17.550781 14.46875 -16.71875 C 12.96875 -15.21875 11.429688 -14.796875 9.859375 -15.453125 L 9.640625 -15.234375 C 9.929688 -14.378906 9.984375 -13.585938 9.796875 -12.859375 C 9.609375 -12.128906 9.171875 -11.421875 8.484375 -10.734375 C 7.703125 -9.953125 6.828125 -9.453125 5.859375 -9.234375 C 4.898438 -9.023438 3.894531 -9.125 2.84375 -9.53125 C 1.789062 -9.9375 0.742188 -10.660156 -0.296875 -11.703125 C -1.316406 -12.722656 -2.03125 -13.765625 -2.4375 -14.828125 C -2.84375 -15.890625 -2.941406 -16.90625 -2.734375 -17.875 C -2.523438 -18.84375 -2.046875 -19.703125 -1.296875 -20.453125 C -0.703125 -21.046875 -0.109375 -21.425781 0.484375 -21.59375 C 1.085938 -21.769531 1.753906 -21.773438 2.484375 -21.609375 L 2.640625 -21.828125 L 1.546875 -22.921875 L 4.203125 -25.578125 L 10.421875 -19.359375 C 11.273438 -18.503906 12.015625 -18.390625 12.640625 -19.015625 C 13.085938 -19.460938 13.179688 -20.097656 12.921875 -20.921875 C 12.660156 -21.742188 11.9375 -22.75 10.75 -23.9375 C 8.625 -26.0625 6.425781 -27.144531 4.15625 -27.1875 C 1.894531 -27.238281 -0.359375 -26.140625 -2.609375 -23.890625 C -4.003906 -22.492188 -4.9375 -20.976562 -5.40625 -19.34375 C -5.875 -17.707031 -5.851562 -16.054688 -5.34375 -14.390625 C -4.832031 -12.722656 -3.847656 -11.160156 -2.390625 -9.703125 C -0.0234375 -7.335938 2.335938 -6.144531 4.703125 -6.125 C 7.066406 -6.101562 9.335938 -7.179688 11.515625 -9.359375 C 12.234375 -10.078125 12.828125 -10.816406 13.296875 -11.578125 C 13.773438 -12.347656 14.113281 -13.082031 14.3125 -13.78125 L 14.5 -13.96875 L 17.109375 -12.765625 C 17.066406 -12.328125 16.898438 -11.785156 16.609375 -11.140625 C 16.328125 -10.503906 15.9375 -9.832031 15.4375 -9.125 C 14.9375 -8.414062 14.375 -7.75 13.75 -7.125 Z M 6.953125 -13.703125 C 7.546875 -14.296875 7.789062 -14.96875 7.6875 -15.71875 C 7.59375 -16.476562 7.097656 -17.304688 6.203125 -18.203125 C 5.316406 -19.085938 4.488281 -19.578125 3.71875 -19.671875 C 2.957031 -19.773438 2.285156 -19.535156 1.703125 -18.953125 C 1.085938 -18.335938 0.832031 -17.664062 0.9375 -16.9375 C 1.039062 -16.207031 1.550781 -15.382812 2.46875 -14.46875 C 3.394531 -13.539062 4.21875 -13.023438 4.9375 -12.921875 C 5.664062 -12.828125 6.335938 -13.085938 6.953125 -13.703125 Z M 6.953125 -13.703125 "/></g></g></g><g fill="#cf3678" fill-opacity="1"><g transform="translate(83.833849, 181.931367)"><g><path d="M 4.765625 -4.328125 C 4.015625 -3.578125 3.226562 -3.066406 2.40625 -2.796875 C 1.582031 -2.523438 0.757812 -2.503906 -0.0625 -2.734375 C -0.894531 -2.972656 -1.6875 -3.46875 -2.4375 -4.21875 C -3.125 -4.90625 -3.550781 -5.628906 -3.71875 -6.390625 C -3.894531 -7.160156 -3.820312 -8.003906 -3.5 -8.921875 C -3.175781 -9.835938 -2.597656 -10.878906 -1.765625 -12.046875 C -1.179688 -12.859375 -0.773438 -13.507812 -0.546875 -14 C -0.328125 -14.5 -0.234375 -14.894531 -0.265625 -15.1875 C -0.304688 -15.488281 -0.457031 -15.769531 -0.71875 -16.03125 C -1.09375 -16.40625 -1.507812 -16.5625 -1.96875 -16.5 C -2.425781 -16.4375 -2.957031 -16.101562 -3.5625 -15.5 C -4.207031 -14.851562 -4.675781 -14.085938 -4.96875 -13.203125 C -5.269531 -12.328125 -5.40625 -11.4375 -5.375 -10.53125 L -5.578125 -10.328125 L -8.640625 -10.953125 C -8.703125 -12.203125 -8.492188 -13.4375 -8.015625 -14.65625 C -7.535156 -15.875 -6.789062 -16.988281 -5.78125 -18 C -4.226562 -19.550781 -2.78125 -20.34375 -1.4375 -20.375 C -0.09375 -20.40625 1.179688 -19.816406 2.390625 -18.609375 L 7.453125 -13.546875 C 7.972656 -13.023438 8.460938 -12.992188 8.921875 -13.453125 C 9.097656 -13.628906 9.238281 -13.832031 9.34375 -14.0625 L 9.546875 -14.171875 L 11.78125 -12.34375 C 11.726562 -12.082031 11.59375 -11.769531 11.375 -11.40625 C 11.15625 -11.039062 10.875 -10.6875 10.53125 -10.34375 C 9.832031 -9.644531 9.148438 -9.234375 8.484375 -9.109375 C 7.828125 -8.992188 7.128906 -9.140625 6.390625 -9.546875 L 6.140625 -9.359375 C 6.785156 -7.566406 6.328125 -5.890625 4.765625 -4.328125 Z M 3.515625 -7.453125 C 4.191406 -8.128906 4.503906 -8.894531 4.453125 -9.75 C 4.410156 -10.613281 3.984375 -11.453125 3.171875 -12.265625 L 1.984375 -13.453125 L 1.71875 -13.28125 C 1.695312 -12.96875 1.585938 -12.617188 1.390625 -12.234375 C 1.203125 -11.859375 0.882812 -11.351562 0.4375 -10.71875 C -0.09375 -9.976562 -0.363281 -9.335938 -0.375 -8.796875 C -0.394531 -8.265625 -0.171875 -7.765625 0.296875 -7.296875 C 0.796875 -6.796875 1.320312 -6.5625 1.875 -6.59375 C 2.4375 -6.632812 2.984375 -6.921875 3.515625 -7.453125 Z M 3.515625 -7.453125 "/></g></g></g><g fill="#cf3678" fill-opacity="1"><g transform="translate(96.129615, 169.635601)"><g><path d="M 1.671875 -1.671875 L -10 -13.34375 L -7.140625 -16.203125 L -5.40625 -14.46875 L -5.140625 -14.640625 C -5.503906 -15.566406 -5.609375 -16.410156 -5.453125 -17.171875 C -5.296875 -17.929688 -4.890625 -18.640625 -4.234375 -19.296875 C -3.578125 -19.953125 -2.96875 -20.34375 -2.40625 -20.46875 L -0.359375 -17.453125 L -0.546875 -17.171875 C -0.816406 -17.066406 -1.054688 -16.941406 -1.265625 -16.796875 C -1.472656 -16.648438 -1.703125 -16.453125 -1.953125 -16.203125 C -2.765625 -15.390625 -3.097656 -14.476562 -2.953125 -13.46875 C -2.816406 -12.46875 -2.113281 -11.332031 -0.84375 -10.0625 L 4.609375 -4.609375 Z M 1.671875 -1.671875 "/></g></g></g><g fill="#cf3678" fill-opacity="1"><g transform="translate(105.274789, 160.490426)"><g><path d="M 6.265625 -6.265625 L 3.1875 -3.1875 L -11.25 -12.09375 L -8.53125 -14.8125 L 1.0625 -8.625 L 1.296875 -8.859375 L -4.375 -18.96875 L -1.84375 -21.5 L 8.34375 -15.90625 L 8.578125 -16.140625 L 2.328125 -25.671875 L 4.96875 -28.3125 L 13.90625 -13.90625 L 10.828125 -10.828125 L 0.6875 -16.5625 L 0.453125 -16.328125 Z M 6.265625 -6.265625 "/></g></g></g><g fill="#cf3678" fill-opacity="1"><g transform="translate(122.328158, 143.437057)"><g><path d="M 5.984375 -5.546875 C 5.054688 -4.617188 4.015625 -4.019531 2.859375 -3.75 C 1.710938 -3.488281 0.488281 -3.609375 -0.8125 -4.109375 C -2.125 -4.617188 -3.445312 -5.539062 -4.78125 -6.875 C -6.113281 -8.207031 -7.023438 -9.53125 -7.515625 -10.84375 C -8.015625 -12.164062 -8.125 -13.414062 -7.84375 -14.59375 C -7.5625 -15.769531 -6.941406 -16.835938 -5.984375 -17.796875 C -5.253906 -18.523438 -4.5 -19.03125 -3.71875 -19.3125 C -2.9375 -19.59375 -2.097656 -19.648438 -1.203125 -19.484375 L -1.015625 -19.765625 L -6.96875 -25.71875 L -4.046875 -28.640625 L 12.296875 -12.296875 L 9.375 -9.375 L 7.859375 -10.890625 L 7.578125 -10.703125 C 7.804688 -9.828125 7.796875 -8.945312 7.546875 -8.0625 C 7.304688 -7.1875 6.785156 -6.347656 5.984375 -5.546875 Z M 4.453125 -8.984375 C 5.273438 -9.804688 5.628906 -10.75 5.515625 -11.8125 C 5.410156 -12.882812 4.757812 -14.019531 3.5625 -15.21875 C 2.363281 -16.414062 1.226562 -17.070312 0.15625 -17.1875 C -0.914062 -17.300781 -1.863281 -16.945312 -2.6875 -16.125 C -3.550781 -15.257812 -3.921875 -14.3125 -3.796875 -13.28125 C -3.671875 -12.25 -2.992188 -11.117188 -1.765625 -9.890625 C -0.535156 -8.660156 0.585938 -7.984375 1.609375 -7.859375 C 2.640625 -7.742188 3.585938 -8.117188 4.453125 -8.984375 Z M 4.453125 -8.984375 "/></g></g></g><g fill="#cf3678" fill-opacity="1"><g transform="translate(136.30494, 129.460275)"><g><path d="M 8.375 -7.9375 C 6.882812 -6.445312 5.21875 -5.894531 3.375 -6.28125 L 3.203125 -6.015625 L 4.609375 -4.609375 L 1.671875 -1.671875 L -14.671875 -18.015625 L -11.734375 -20.953125 L -5.671875 -14.890625 L -5.40625 -15.0625 C -5.5625 -16.03125 -5.5 -16.921875 -5.21875 -17.734375 C -4.945312 -18.554688 -4.429688 -19.347656 -3.671875 -20.109375 C -2.722656 -21.054688 -1.671875 -21.65625 -0.515625 -21.90625 C 0.628906 -22.164062 1.847656 -22.035156 3.140625 -21.515625 C 4.441406 -21.003906 5.757812 -20.082031 7.09375 -18.75 C 8.425781 -17.414062 9.34375 -16.09375 9.84375 -14.78125 C 10.34375 -13.46875 10.453125 -12.226562 10.171875 -11.0625 C 9.898438 -9.90625 9.300781 -8.863281 8.375 -7.9375 Z M 5 -9.53125 C 5.851562 -10.382812 6.21875 -11.320312 6.09375 -12.34375 C 5.976562 -13.375 5.304688 -14.503906 4.078125 -15.734375 C 2.847656 -16.960938 1.71875 -17.640625 0.6875 -17.765625 C -0.34375 -17.890625 -1.285156 -17.523438 -2.140625 -16.671875 C -2.960938 -15.847656 -3.316406 -14.894531 -3.203125 -13.8125 C -3.097656 -12.738281 -2.445312 -11.601562 -1.25 -10.40625 C -0.0507812 -9.207031 1.082031 -8.554688 2.15625 -8.453125 C 3.226562 -8.347656 4.175781 -8.707031 5 -9.53125 Z M 5 -9.53125 "/></g></g></g><g fill="#cf3678" fill-opacity="1"><g transform="translate(150.271153, 115.494062)"><g><path d="M 6.984375 -6.546875 C 5.847656 -5.410156 4.613281 -4.644531 3.28125 -4.25 C 1.945312 -3.851562 0.59375 -3.867188 -0.78125 -4.296875 C -2.164062 -4.734375 -3.5 -5.59375 -4.78125 -6.875 C -6.0625 -8.15625 -6.914062 -9.484375 -7.34375 -10.859375 C -7.78125 -12.242188 -7.800781 -13.601562 -7.40625 -14.9375 C -7.019531 -16.28125 -6.257812 -17.519531 -5.125 -18.65625 C -3.976562 -19.800781 -2.734375 -20.566406 -1.390625 -20.953125 C -0.0546875 -21.347656 1.300781 -21.332031 2.6875 -20.90625 C 4.070312 -20.476562 5.40625 -19.625 6.6875 -18.34375 C 7.96875 -17.0625 8.820312 -15.726562 9.25 -14.34375 C 9.675781 -12.957031 9.691406 -11.597656 9.296875 -10.265625 C 8.898438 -8.929688 8.128906 -7.691406 6.984375 -6.546875 Z M 4.5 -9.03125 C 6.3125 -10.84375 6.03125 -12.9375 3.65625 -15.3125 C 2.425781 -16.539062 1.289062 -17.210938 0.25 -17.328125 C -0.789062 -17.441406 -1.753906 -17.054688 -2.640625 -16.171875 C -4.441406 -14.367188 -4.148438 -12.273438 -1.765625 -9.890625 C 0.609375 -7.515625 2.695312 -7.226562 4.5 -9.03125 Z M 4.5 -9.03125 "/></g></g></g><g fill="#cf3678" fill-opacity="1"><g transform="translate(163.825037, 101.940179)"><g><path d="M 5.265625 -10.828125 L 8.1875 -9.4375 C 8.132812 -8.84375 7.941406 -8.234375 7.609375 -7.609375 C 7.273438 -6.984375 6.804688 -6.367188 6.203125 -5.765625 C 4.941406 -4.503906 3.640625 -3.890625 2.296875 -3.921875 C 0.953125 -3.953125 -0.375 -4.625 -1.6875 -5.9375 L -7.21875 -11.46875 L -8.984375 -9.703125 L -11.3125 -12.03125 L -9.546875 -13.796875 L -11.8125 -16.0625 L -9.375 -19.46875 L -6.625 -16.71875 L -3.3125 -20.03125 L -0.984375 -17.703125 L -4.296875 -14.390625 L 1.03125 -9.0625 C 1.601562 -8.488281 2.144531 -8.191406 2.65625 -8.171875 C 3.164062 -8.148438 3.648438 -8.367188 4.109375 -8.828125 C 4.628906 -9.347656 4.941406 -9.941406 5.046875 -10.609375 Z M 5.265625 -10.828125 "/></g></g></g><g fill="#ff914d" fill-opacity="1"><g transform="translate(120.629421, 332.405374)"><g><path d="M 4.550781 -10.386719 C 5.4375 -11.292969 6.382812 -12.503906 7.238281 -14.058594 C 8.105469 -15.511719 8.796875 -17.191406 9.308594 -19.101562 C 9.832031 -20.910156 10.039062 -22.878906 9.925781 -25.007812 C 9.867188 -27.097656 9.292969 -29.320312 8.300781 -31.691406 C 8.203125 -30.878906 8.144531 -30.125 7.992188 -29.359375 C 7.890625 -28.546875 7.695312 -27.726562 7.441406 -26.945312 C 6.578125 -23.449219 5.105469 -20.425781 3.039062 -17.777344 C 2.007812 -16.453125 0.796875 -15.355469 -0.507812 -14.597656 C -1.796875 -13.738281 -3.234375 -13.261719 -4.804688 -13.070312 C -6.375 -12.875 -8.007812 -13.171875 -9.800781 -13.949219 C -11.800781 -14.796875 -13.511719 -16.132812 -14.988281 -17.992188 C -16.464844 -19.855469 -17.738281 -22.09375 -18.753906 -24.660156 C -19.808594 -27.171875 -20.488281 -29.828125 -20.894531 -32.722656 C -21.289062 -35.515625 -21.335938 -38.300781 -21.085938 -41.125 C -20.824219 -43.847656 -20.1875 -46.371094 -19.230469 -48.734375 C -18.265625 -50.996094 -16.855469 -52.914062 -15.050781 -54.433594 C -13.371094 -55.789062 -11.75 -56.386719 -10.089844 -56.246094 C -8.46875 -56.046875 -6.898438 -55.441406 -5.265625 -54.347656 C -4.492188 -53.742188 -3.710938 -53.042969 -2.914062 -52.246094 C -2.117188 -51.445312 -1.460938 -50.578125 -0.804688 -49.710938 C -0.136719 -48.746094 0.433594 -47.769531 0.945312 -46.835938 C 1.515625 -45.859375 1.988281 -44.871094 2.304688 -43.914062 C 3.050781 -41.910156 3.433594 -40.015625 3.390625 -38.363281 C 3.398438 -36.667969 2.898438 -35.460938 1.878906 -34.835938 C 1.707031 -34.617188 1.445312 -34.730469 1.089844 -35.1875 C 0.8125 -35.402344 0.519531 -36.164062 0.175781 -37.316406 L -5.230469 -54.050781 L -9.105469 -49.085938 L -7.601562 -44.1875 C -8.980469 -45.261719 -10.261719 -45.550781 -11.546875 -45.042969 C -12.875 -44.480469 -13.84375 -43.464844 -14.503906 -41.9375 C -15.003906 -40.730469 -15.246094 -39.054688 -15.230469 -36.910156 C -15.214844 -34.769531 -15.03125 -32.496094 -14.589844 -30.109375 C -14.027344 -27.1875 -13.253906 -24.539062 -12.304688 -22.113281 C -11.902344 -21.265625 -11.441406 -20.375 -10.785156 -19.511719 C -10.074219 -18.601562 -9.390625 -17.886719 -8.628906 -17.382812 C -7.855469 -16.78125 -7.066406 -16.429688 -6.210938 -16.386719 C -5.402344 -16.285156 -4.609375 -16.734375 -3.921875 -17.617188 C -3.015625 -18.773438 -2.34375 -20.203125 -1.863281 -21.957031 C -1.382812 -23.710938 -1.324219 -25.265625 -1.660156 -26.769531 C -0.863281 -25.972656 -0.03125 -25.675781 0.910156 -25.742188 C 1.804688 -25.753906 2.640625 -26.253906 3.328125 -27.136719 C 4.644531 -28.597656 5.53125 -30.300781 6.011719 -32.054688 C 7.085938 -35.480469 7.0625 -39.316406 5.960938 -43.367188 C 4.820312 -47.367188 3.039062 -50.886719 0.664062 -53.980469 C -0.570312 -55.476562 -1.929688 -56.804688 -3.363281 -57.921875 C -4.800781 -59.042969 -6.339844 -59.796875 -7.996094 -60.292969 C -9.640625 -60.6875 -11.34375 -60.777344 -13.089844 -60.359375 C -14.832031 -59.945312 -16.503906 -58.941406 -18.101562 -57.347656 C -19.742188 -55.699219 -21.152344 -53.78125 -22.21875 -51.503906 C -23.28125 -49.230469 -24.027344 -46.792969 -24.609375 -44.230469 C -25.136719 -41.621094 -25.410156 -38.996094 -25.488281 -36.390625 C -25.507812 -33.746094 -25.316406 -31.378906 -24.949219 -29.230469 C -24.421875 -26.152344 -23.632812 -23.40625 -22.488281 -21.007812 C -21.386719 -18.550781 -20.140625 -16.511719 -18.71875 -14.691406 C -17.242188 -12.828125 -15.703125 -11.273438 -13.960938 -10.09375 C -12.261719 -8.855469 -10.558594 -7.96875 -8.804688 -7.488281 C -6.3125 -6.699219 -3.894531 -6.5 -1.5625 -6.988281 C 0.730469 -7.417969 2.78125 -8.570312 4.550781 -10.386719 Z M -5.824219 -24.960938 C -6.769531 -24.542969 -7.726562 -25.023438 -8.652344 -26.453125 C -9.183594 -27.136719 -9.65625 -28.125 -10.109375 -29.367188 C -10.5625 -30.605469 -10.953125 -32.152344 -11.390625 -34.09375 C -11.441406 -34.488281 -11.542969 -34.921875 -11.589844 -35.316406 C -11.640625 -35.710938 -11.742188 -36.144531 -11.804688 -36.636719 C -11.96875 -37.5625 -12.023438 -38.402344 -12.066406 -39.148438 C -12.0625 -39.945312 -11.953125 -40.65625 -11.785156 -41.324219 C -11.617188 -41.996094 -11.242188 -42.589844 -10.8125 -43.140625 C -10.242188 -43.761719 -9.597656 -43.789062 -8.847656 -43.382812 C -8.144531 -42.921875 -7.402344 -42.167969 -6.679688 -41.160156 L -4.488281 -33.5 C -4.304688 -32.824219 -4.164062 -32.09375 -4.011719 -31.265625 C -3.859375 -30.4375 -3.804688 -29.597656 -3.804688 -28.796875 C -3.796875 -27.902344 -3.992188 -27.082031 -4.257812 -26.398438 C -4.566406 -25.664062 -5.105469 -25.199219 -5.824219 -24.960938 Z M -5.824219 -24.960938 "/></g></g></g><g fill="#ff914d" fill-opacity="1"><g transform="translate(144.130572, 302.281017)"><g><path d="M 13.234375 -17.988281 L 13.230469 -17.640625 C 14.433594 -19.183594 15.199219 -21.074219 15.507812 -23.40625 C 15.832031 -25.640625 15.878906 -28.089844 15.617188 -30.597656 C 15.367188 -33.011719 14.867188 -35.441406 14.269531 -37.863281 C 13.671875 -40.28125 12.957031 -42.4375 12.238281 -44.242188 C 12.261719 -44.046875 12.230469 -43.894531 12.210938 -43.640625 C 12.191406 -43.390625 12.230469 -43.09375 12.222656 -42.746094 C 12.277344 -41.902344 12.285156 -41.007812 12.253906 -40.054688 C 12.277344 -39.0625 12.257812 -38.011719 12.195312 -36.90625 C 12.148438 -34.457031 11.984375 -32.542969 11.566406 -31.097656 C 11.410156 -30.328125 11.121094 -29.84375 10.796875 -29.65625 C 10.472656 -29.464844 10.097656 -29.667969 9.675781 -30.265625 C 9.210938 -30.804688 8.714844 -31.992188 8.210938 -33.625 L -0.0976562 -59.722656 L -6.164062 -51.941406 L -3.84375 -44.449219 C -4.949219 -45.3125 -5.960938 -45.835938 -7.035156 -46.050781 C -8.050781 -46.222656 -8.992188 -46.15625 -9.949219 -45.839844 C -10.894531 -45.425781 -11.761719 -44.769531 -12.5625 -43.972656 C -13.304688 -43.132812 -13.96875 -42.054688 -14.523438 -40.886719 C -14.90625 -39.941406 -15.261719 -38.800781 -15.441406 -37.433594 C -15.625 -36.066406 -15.75 -34.652344 -15.75 -33.058594 C -15.753906 -31.460938 -15.6875 -29.722656 -15.511719 -27.902344 C -15.335938 -26.078125 -15.117188 -24.308594 -14.789062 -22.457031 C -14.414062 -20.207031 -13.949219 -18.070312 -13.34375 -16.003906 C -12.726562 -13.835938 -12.039062 -11.875 -11.261719 -10.027344 C -10.699219 -8.699219 -9.925781 -7.300781 -8.859375 -5.9375 C -7.792969 -4.570312 -6.710938 -3.460938 -5.464844 -2.664062 C -4.207031 -1.773438 -2.957031 -1.332031 -1.699219 -1.234375 C -0.441406 -1.140625 0.734375 -1.734375 1.808594 -3.117188 C 3.273438 -4.992188 4.4375 -7.277344 5.101562 -9.953125 C 5.449219 -11.195312 5.640625 -12.464844 5.734375 -13.722656 C 5.828125 -14.980469 5.726562 -16.214844 5.4375 -17.324219 C 6.621094 -16.226562 7.929688 -15.738281 9.414062 -15.820312 C 10.855469 -15.851562 12.117188 -16.554688 13.234375 -17.988281 Z M -0.960938 -14.242188 C -1.625 -13.960938 -2.324219 -13.972656 -3.117188 -14.324219 C -3.90625 -14.675781 -4.648438 -15.429688 -5.4375 -16.582031 C -6.214844 -17.632812 -6.945312 -19.085938 -7.691406 -21.089844 C -8.382812 -23.046875 -9.035156 -25.511719 -9.648438 -28.476562 C -9.90625 -29.742188 -10.160156 -31.003906 -10.332031 -32.378906 C -10.542969 -33.699219 -10.605469 -34.988281 -10.664062 -36.277344 C -10.710938 -37.46875 -10.605469 -38.628906 -10.289062 -39.714844 C -10.019531 -40.746094 -9.484375 -41.660156 -8.792969 -42.542969 C -8.351562 -42.996094 -7.886719 -43.253906 -7.394531 -43.3125 C -6.890625 -43.277344 -6.375 -43.140625 -5.792969 -42.863281 C -5.253906 -42.53125 -4.703125 -42.101562 -4.125 -41.472656 C -3.550781 -40.847656 -2.972656 -40.21875 -2.429688 -39.441406 L -2.386719 -39.496094 L 1.082031 -27.558594 C 1.402344 -26.601562 1.644531 -25.433594 1.902344 -24.167969 C 2.113281 -22.847656 2.230469 -21.515625 2.191406 -20.214844 C 2.164062 -18.816406 1.917969 -17.589844 1.449219 -16.535156 C 0.992188 -15.378906 0.191406 -14.582031 -0.960938 -14.242188 Z M -0.960938 -14.242188 "/></g></g></g><g fill="#ff914d" fill-opacity="1"><g transform="translate(166.383471, 273.7567)"><g><path d="M -13.285156 -24.386719 L -3.824219 4.5625 L 2.117188 -3.054688 L -6.945312 -27.960938 C -7.554688 -29.683594 -7.894531 -31.632812 -8.066406 -33.808594 C -8.082031 -34.355469 -8.125 -35.097656 -8.148438 -36.089844 C -8.113281 -37.042969 -8.09375 -38.089844 -7.933594 -39.207031 C -7.816406 -40.269531 -7.585938 -41.246094 -7.359375 -42.222656 C -7.128906 -43.195312 -6.777344 -43.988281 -6.261719 -44.648438 C -5.734375 -45.214844 -5.070312 -45.496094 -4.371094 -45.480469 C -3.617188 -45.425781 -2.714844 -44.988281 -1.609375 -44.128906 C -1.058594 -43.699219 -0.789062 -43.132812 -0.648438 -42.402344 C -0.507812 -41.671875 -0.578125 -41.015625 -0.789062 -40.289062 C -0.996094 -39.566406 -1.304688 -38.832031 -1.820312 -38.167969 C -2.339844 -37.507812 -2.976562 -37.027344 -3.738281 -36.734375 C -3.113281 -35.714844 -2.527344 -34.988281 -1.976562 -34.558594 C -1.421875 -34.128906 -0.796875 -33.90625 -0.25 -33.925781 C 0.308594 -33.84375 0.839844 -33.960938 1.308594 -34.21875 C 1.777344 -34.472656 2.1875 -34.773438 2.53125 -35.214844 C 3.417969 -36.121094 3.941406 -37.136719 4.078125 -38.449219 C 4.171875 -39.707031 4.011719 -40.984375 3.589844 -42.378906 C 3.183594 -43.671875 2.578125 -44.945312 1.730469 -46.136719 C 0.886719 -47.328125 -0.0351562 -48.3125 -1.082031 -49.128906 C -2.117188 -49.847656 -3.226562 -50.359375 -4.355469 -50.621094 C -5.527344 -50.824219 -6.652344 -50.636719 -7.671875 -50.011719 C -8.636719 -49.34375 -9.410156 -48.351562 -9.910156 -47.140625 C -10.355469 -45.890625 -10.742188 -44.59375 -10.921875 -43.226562 C -11.089844 -41.761719 -11.160156 -40.304688 -11.1875 -38.90625 C -11.160156 -37.464844 -11.113281 -36.273438 -11.089844 -35.277344 C -12.140625 -36.542969 -13.246094 -37.40625 -14.355469 -37.917969 C -15.410156 -38.382812 -16.449219 -38.304688 -17.371094 -37.695312 C -18.050781 -37.160156 -18.644531 -36.289062 -19.140625 -35.082031 C -19.640625 -33.875 -20.035156 -32.230469 -20.285156 -30.203125 C -19.222656 -30.085938 -18.402344 -29.886719 -17.675781 -29.679688 C -16.953125 -29.46875 -16.359375 -29.09375 -15.804688 -28.664062 C -15.296875 -28.175781 -14.820312 -27.539062 -14.441406 -26.886719 C -14.046875 -26.136719 -13.644531 -25.289062 -13.285156 -24.386719 Z M -20.382812 -30.191406 L -20.304688 -29.953125 L -20.285156 -30.203125 Z M -20.382812 -30.191406 "/></g></g></g><g fill="#ff914d" fill-opacity="1"><g transform="translate(185.192915, 249.646289)"><g><path d="M 14.785156 -19.976562 C 15.613281 -20.925781 16.167969 -22.089844 16.503906 -23.429688 C 16.835938 -24.765625 17.015625 -26.136719 17.019531 -27.730469 C 17.03125 -29.226562 16.9375 -30.8125 16.742188 -32.382812 C 16.546875 -33.957031 16.398438 -35.582031 16.191406 -37.25 C 15.851562 -40.003906 15.425781 -42.640625 14.890625 -45.367188 C 14.355469 -48.09375 13.699219 -50.554688 12.960938 -52.910156 L 13.84375 -53.015625 L 12.324219 -54.824219 C 12.097656 -55.445312 11.816406 -56.109375 11.59375 -56.726562 C 11.367188 -57.347656 11.042969 -57.957031 10.773438 -58.523438 C 10.246094 -59.554688 9.554688 -60.714844 8.738281 -62.058594 C 7.882812 -63.351562 6.90625 -64.375 5.914062 -65.152344 C 4.835938 -65.816406 4.125 -65.925781 3.722656 -65.527344 C 3.324219 -65.128906 3.183594 -64.265625 3.339844 -62.988281 C 3.496094 -61.710938 3.960938 -60.371094 4.636719 -58.960938 C 5.320312 -57.449219 6.289062 -56.074219 7.484375 -54.875 C 8.636719 -53.621094 10.0625 -52.949219 11.726562 -52.804688 C 12.496094 -50.605469 13.136719 -48.242188 13.539062 -45.800781 C 13.984375 -43.410156 14.109375 -41.183594 13.917969 -39.113281 C 13.679688 -36.992188 13.339844 -35.304688 12.855469 -33.996094 C 12.324219 -32.636719 11.746094 -31.667969 11.074219 -31.035156 C 10.363281 -30.347656 9.566406 -30.351562 8.695312 -30.941406 C 7.878906 -31.488281 7.039062 -33.03125 6.289062 -35.480469 L -0.9375 -59.667969 L -7.007812 -51.886719 L 0.5 -26.238281 C 0.683594 -25.5625 0.878906 -24.789062 1 -23.808594 C 1.175781 -22.78125 1.296875 -21.800781 1.320312 -20.804688 C 1.355469 -19.714844 1.222656 -18.75 0.984375 -17.871094 C 0.742188 -16.996094 0.3125 -16.441406 -0.339844 -16.0625 C -0.707031 -15.820312 -1.15625 -15.8125 -1.542969 -16.113281 C -1.929688 -16.414062 -2.28125 -16.871094 -2.664062 -17.523438 C -3.042969 -18.171875 -3.378906 -18.878906 -3.738281 -19.78125 C -4.089844 -20.585938 -4.351562 -21.5 -4.667969 -22.460938 L -6.441406 -27.925781 C -7.007812 -29.699219 -7.621094 -31.417969 -8.207031 -32.941406 C -8.78125 -34.367188 -9.585938 -35.613281 -10.515625 -36.695312 C -11.488281 -37.722656 -12.65625 -38.277344 -14.066406 -38.402344 C -15.464844 -38.425781 -16.761719 -38.019531 -17.953125 -37.171875 C -19.144531 -36.328125 -19.996094 -35.125 -20.445312 -33.523438 C -19.878906 -33.792969 -19.332031 -33.8125 -18.804688 -33.578125 C -18.222656 -33.300781 -17.671875 -32.871094 -17.207031 -32.328125 C -16.726562 -31.691406 -16.347656 -31.039062 -15.96875 -30.386719 C -15.632812 -29.679688 -15.363281 -29.117188 -15.257812 -28.679688 L -10.089844 -9.023438 C -10.015625 -8.4375 -9.789062 -7.816406 -9.550781 -7.097656 C -9.3125 -6.378906 -9.019531 -5.617188 -8.683594 -4.910156 C -7.644531 -2.945312 -6.449219 -1.746094 -5.140625 -1.257812 C -3.78125 -0.730469 -2.492188 -0.789062 -1.207031 -1.296875 C 0.0351562 -1.75 1.128906 -2.582031 2.074219 -3.796875 C 3.019531 -5.011719 3.550781 -6.371094 3.664062 -7.882812 C 3.832031 -9.347656 3.90625 -11.152344 3.863281 -13.140625 C 3.816406 -15.128906 3.589844 -17.347656 3.203125 -19.691406 C 4.113281 -18.359375 5.164062 -17.539062 6.304688 -17.183594 C 7.445312 -16.824219 8.605469 -16.71875 9.671875 -16.949219 C 10.796875 -17.140625 11.796875 -17.511719 12.71875 -18.125 C 13.640625 -18.738281 14.3125 -19.367188 14.785156 -19.976562 Z M 14.785156 -19.976562 "/></g></g></g><g fill="#ff914d" fill-opacity="1"><g transform="translate(210.458836, 217.259806)"><g><path d="M 1.582031 -2.9375 C 2.441406 -4.042969 3.101562 -5.570312 3.460938 -7.507812 C 3.820312 -9.445312 4.011719 -11.515625 3.941406 -13.699219 C 3.882812 -15.789062 3.628906 -17.851562 3.277344 -19.902344 C 2.921875 -21.949219 2.464844 -23.640625 1.792969 -25.050781 C 4.359375 -21.628906 6.570312 -19.460938 8.417969 -18.640625 C 10.429688 -17.691406 12.082031 -17.648438 13.273438 -18.492188 C 14.335938 -19.171875 15.183594 -20.375 15.664062 -22.128906 C 16.203125 -23.839844 16.4375 -25.964844 16.34375 -28.34375 C 16.261719 -30.628906 15.847656 -33.171875 15.003906 -35.957031 C 14.21875 -38.703125 12.980469 -41.441406 11.4375 -44.242188 L 11.535156 -43.457031 C 11.585938 -43.066406 11.589844 -42.617188 11.664062 -42.027344 C 11.691406 -41.382812 11.777344 -40.695312 11.808594 -40.050781 C 11.792969 -39.351562 11.835938 -38.609375 11.820312 -37.910156 C 11.820312 -36.3125 11.804688 -34.816406 11.722656 -33.460938 C 11.597656 -32.046875 11.371094 -31.070312 10.984375 -30.574219 C 10.75 -30.046875 10.355469 -30 9.890625 -30.539062 C 9.449219 -30.882812 8.867188 -31.960938 8.257812 -33.679688 L -7.082031 -83.191406 C -7.710938 -82.617188 -8.441406 -82.476562 -9.164062 -82.683594 C -9.890625 -82.894531 -10.667969 -83.148438 -11.472656 -83.597656 C -12.261719 -83.949219 -13.054688 -84.300781 -13.886719 -84.59375 C -14.722656 -84.890625 -15.476562 -84.945312 -16.238281 -84.652344 L -16.074219 -84.523438 C -15.652344 -83.128906 -15.183594 -81.34375 -14.523438 -79.230469 C -13.863281 -77.117188 -13.125 -74.765625 -12.371094 -72.316406 C -11.960938 -71.019531 -11.609375 -69.769531 -11.199219 -68.472656 C -10.789062 -67.175781 -10.378906 -65.882812 -9.972656 -64.585938 C -9.550781 -63.191406 -9.140625 -61.894531 -8.730469 -60.601562 C -8.363281 -59.25 -8.011719 -57.996094 -7.613281 -56.800781 C -6.792969 -54.207031 -6.109375 -51.898438 -5.5625 -49.871094 L -4.011719 -44.578125 C -4.121094 -44.664062 -4.242188 -44.851562 -4.464844 -45.023438 L -5.070312 -45.496094 C -5.457031 -45.796875 -5.886719 -46.042969 -6.414062 -46.277344 C -6.941406 -46.511719 -7.414062 -46.703125 -8.027344 -46.824219 C -8.585938 -46.90625 -9.21875 -46.777344 -9.9375 -46.539062 C -10.644531 -46.203125 -11.324219 -45.671875 -12.070312 -44.832031 C -13.585938 -42.996094 -14.707031 -40.765625 -15.398438 -38.285156 C -16.089844 -35.808594 -16.460938 -33.167969 -16.539062 -30.566406 C -16.605469 -27.867188 -16.429688 -25.246094 -16.015625 -22.703125 C -15.648438 -20.105469 -15.074219 -17.882812 -14.4375 -15.96875 C -13.550781 -13.234375 -12.492188 -10.722656 -11.21875 -8.488281 C -9.988281 -6.195312 -8.582031 -4.476562 -6.992188 -3.324219 C -4.894531 -1.6875 -3.203125 -0.902344 -1.773438 -1.027344 C -0.386719 -1.097656 0.734375 -1.734375 1.582031 -2.9375 Z M -2.8125 -19.148438 C -3.386719 -18.527344 -4.074219 -18.445312 -5.019531 -18.828125 C -5.433594 -18.972656 -5.988281 -19.40625 -6.5625 -20.03125 C -7.140625 -20.660156 -7.726562 -21.382812 -8.242188 -22.316406 C -8.753906 -23.25 -9.324219 -24.226562 -9.808594 -25.316406 C -10.292969 -26.402344 -10.71875 -27.445312 -11.007812 -28.558594 C -11.609375 -30.625 -11.941406 -32.480469 -12.046875 -34.164062 C -12.15625 -35.84375 -11.988281 -37.3125 -11.699219 -38.59375 C -11.394531 -39.777344 -10.914062 -40.734375 -10.300781 -41.410156 C -9.628906 -42.039062 -8.886719 -42.082031 -8.003906 -41.394531 C -7.066406 -40.660156 -6.257812 -38.964844 -5.636719 -36.351562 C -4.769531 -37.007812 -4.199219 -37.625 -3.988281 -38.347656 C -3.722656 -39.03125 -3.539062 -39.949219 -3.375 -41.066406 L -3.277344 -41.078125 C -2.839844 -39.140625 -2.386719 -37.101562 -1.925781 -34.964844 C -1.503906 -32.773438 -1.25 -30.710938 -1.105469 -28.734375 C -0.949219 -26.660156 -0.957031 -24.710938 -1.199219 -23.039062 C -1.441406 -21.363281 -1.929688 -20.054688 -2.8125 -19.148438 Z M -2.8125 -19.148438 "/></g></g></g><g fill="#ff914d" fill-opacity="1"><g transform="translate(233.400428, 187.852706)"><g><path d="M 3.5625 -4.679688 C 4.71875 -6.617188 5.441406 -9.246094 5.78125 -12.53125 C 6.125 -15.816406 5.835938 -19.769531 4.925781 -24.292969 C 4.550781 -26.539062 4.0625 -28.871094 3.378906 -31.183594 C 2.75 -33.449219 2.035156 -35.601562 1.234375 -37.648438 C 0.445312 -39.59375 -0.472656 -41.375 -1.367188 -42.960938 C -2.261719 -44.546875 -3.214844 -45.824219 -4.191406 -46.851562 C -5.152344 -47.777344 -6.164062 -48.300781 -7.140625 -48.53125 C -8.105469 -48.660156 -9.0625 -48.34375 -9.972656 -47.632812 C -11.097656 -46.644531 -11.738281 -45.371094 -11.992188 -43.792969 C -12.1875 -42.171875 -12.105469 -40.6875 -11.683594 -39.292969 C -11.25 -37.800781 -10.601562 -36.585938 -9.640625 -35.65625 C -8.71875 -34.671875 -7.675781 -34.304688 -6.457031 -34.503906 C -7.007812 -34.933594 -7.441406 -35.628906 -7.789062 -36.433594 C -8.128906 -37.140625 -8.421875 -37.902344 -8.519531 -38.6875 C -8.613281 -39.472656 -8.65625 -40.214844 -8.546875 -40.929688 C -8.421875 -41.542969 -8.132812 -42.027344 -7.675781 -42.382812 C -7.265625 -42.679688 -6.761719 -42.644531 -6.265625 -42.257812 C -5.757812 -41.769531 -5.222656 -41.089844 -4.613281 -40.167969 C -3.988281 -39.148438 -3.371094 -37.777344 -2.769531 -36.15625 C -2.171875 -34.535156 -1.65625 -32.804688 -1.1875 -31.015625 C -0.707031 -29.132812 -0.378906 -27.277344 -0.160156 -25.507812 C 0.113281 -23.699219 0.167969 -22.058594 0.0859375 -20.703125 C 0.015625 -19.25 -0.296875 -18.164062 -0.804688 -17.402344 C -1.351562 -16.585938 -2.167969 -16.335938 -3.199219 -16.609375 C -4.425781 -16.855469 -5.75 -17.886719 -7.117188 -19.664062 C -8.480469 -21.441406 -9.835938 -23.914062 -11.089844 -27.199219 C -11.664062 -28.625 -12.242188 -30.5 -12.882812 -32.863281 C -13.523438 -35.226562 -14.203125 -37.886719 -14.960938 -40.785156 C -14.34375 -42.257812 -13.863281 -44.011719 -13.492188 -45.851562 C -13.121094 -47.691406 -12.804688 -49.578125 -12.652344 -51.589844 C -12.492188 -53.503906 -12.382812 -55.460938 -12.429688 -57.449219 C -12.476562 -59.441406 -12.609375 -61.316406 -12.839844 -63.183594 C -13.160156 -65.386719 -13.601562 -67.328125 -14.242188 -68.894531 C -14.832031 -70.417969 -15.492188 -71.730469 -16.3125 -72.726562 C -17.121094 -73.625 -17.949219 -74.269531 -18.894531 -74.652344 C -19.839844 -75.035156 -20.703125 -75.175781 -21.585938 -75.066406 C -22.460938 -74.859375 -23.308594 -74.457031 -24.128906 -73.855469 C -24.953125 -73.257812 -25.597656 -72.429688 -26.175781 -71.460938 C -26.742188 -70.390625 -27.144531 -69.195312 -27.367188 -67.773438 C -27.589844 -66.347656 -27.648438 -64.796875 -27.398438 -63.179688 C -26.917969 -59.699219 -26.25 -55.894531 -25.445312 -51.804688 C -24.640625 -47.714844 -23.78125 -43.582031 -22.769531 -39.421875 C -21.800781 -35.203125 -20.796875 -31.136719 -19.722656 -27.28125 C -18.691406 -23.371094 -17.609375 -19.863281 -16.589844 -16.847656 C -15.160156 -12.539062 -13.53125 -9.046875 -11.730469 -6.578125 C -9.875 -4.066406 -8.019531 -2.351562 -6.105469 -1.390625 C -4.191406 -0.429688 -2.417969 -0.199219 -0.699219 -0.8125 C 1.019531 -1.421875 2.460938 -2.695312 3.5625 -4.679688 Z M -16.144531 -45.523438 L -16.1875 -45.46875 C -17.433594 -49.105469 -18.441406 -52.820312 -19.207031 -56.613281 C -19.976562 -60.40625 -20.714844 -64.355469 -21.375 -68.511719 C -21.546875 -69.886719 -21.316406 -70.863281 -20.777344 -71.328125 C -20.40625 -71.574219 -19.90625 -71.535156 -19.320312 -71.257812 C -18.683594 -70.9375 -18.078125 -70.464844 -17.488281 -69.738281 C -16.886719 -68.917969 -16.265625 -67.898438 -15.8125 -66.65625 C -15.304688 -65.371094 -14.96875 -63.867188 -14.859375 -62.1875 C -14.667969 -60.613281 -14.667969 -59.019531 -14.714844 -57.367188 C -14.757812 -55.71875 -14.816406 -54.164062 -14.984375 -52.699219 C -15.140625 -51.132812 -15.265625 -49.722656 -15.511719 -48.492188 C -15.707031 -47.222656 -15.933594 -46.25 -16.144531 -45.523438 Z M -16.144531 -45.523438 "/></g></g></g><g fill="#ff914d" fill-opacity="1"><g transform="translate(250.40206, 166.059593)"><g><path d="M 1.5625 -1.886719 C 2.699219 -2.777344 3.632812 -4.089844 4.367188 -5.824219 C 5.054688 -7.503906 5.570312 -9.414062 5.804688 -11.535156 C 6.054688 -13.5625 6.09375 -15.660156 5.871094 -17.878906 C 5.65625 -19.996094 5.207031 -22.035156 4.460938 -24.035156 C 5.355469 -24.046875 6.019531 -24.328125 6.492188 -24.933594 C 6.96875 -25.542969 7.273438 -26.277344 7.363281 -27.1875 C 7.503906 -28.050781 7.535156 -29.003906 7.347656 -30.125 C 7.171875 -31.152344 6.984375 -32.273438 6.695312 -33.386719 C 6.421875 -34.398438 6.160156 -35.316406 5.796875 -36.21875 C 5.394531 -37.066406 5.058594 -37.773438 4.746094 -38.28125 L 4.59375 -38.3125 C 4.617188 -38.117188 4.640625 -37.917969 4.6875 -37.527344 C 4.738281 -37.132812 4.796875 -36.640625 4.871094 -36.054688 C 4.929688 -34.765625 4.988281 -33.476562 4.9375 -32.273438 C 4.945312 -31.027344 4.769531 -30.007812 4.515625 -29.226562 C 4.222656 -28.394531 3.742188 -28.234375 2.925781 -28.78125 C 2.699219 -29.402344 2.476562 -30.023438 2.207031 -30.589844 C 1.9375 -31.152344 1.625 -31.664062 1.355469 -32.226562 C 0.148438 -34.324219 -0.996094 -35.925781 -2.125 -36.984375 C -3.308594 -38.085938 -4.195312 -38.421875 -4.738281 -37.957031 C -5.363281 -37.382812 -5.648438 -36.449219 -5.503906 -35.269531 C -5.34375 -33.992188 -4.9375 -32.699219 -4.273438 -31.382812 C -3.578125 -29.773438 -2.597656 -28.300781 -1.390625 -27.003906 C -0.171875 -25.609375 1.03125 -24.757812 2.226562 -24.359375 C 2.179688 -21.910156 1.875 -19.925781 1.371094 -18.367188 C 0.867188 -16.808594 0.269531 -15.589844 -0.53125 -14.792969 C -1.230469 -14.007812 -2.023438 -13.5625 -2.921875 -13.550781 C -3.816406 -13.539062 -4.707031 -13.878906 -5.644531 -14.609375 C -6.570312 -15.242188 -7.5 -16.324219 -8.328125 -17.769531 C -9.195312 -19.15625 -10.027344 -21.050781 -10.757812 -23.304688 C -11.460938 -25.359375 -11.933594 -27.59375 -12.140625 -30.0625 C -12.386719 -32.476562 -12.351562 -35.023438 -12.078125 -37.648438 C -11.777344 -39.632812 -11.023438 -40.820312 -9.9375 -41.304688 C -9.359375 -41.476562 -8.757812 -41.449219 -8.121094 -41.128906 C -7.484375 -40.808594 -6.875 -40.335938 -6.277344 -39.511719 C -5.925781 -41.101562 -6.082031 -42.378906 -6.738281 -43.246094 C -7.335938 -44.070312 -8.097656 -44.574219 -9.019531 -44.757812 C -9.632812 -44.882812 -10.222656 -44.808594 -10.796875 -44.636719 C -11.417969 -44.414062 -11.929688 -44.101562 -12.316406 -43.601562 C -13.433594 -42.167969 -14.277344 -40.519531 -14.933594 -38.542969 C -15.53125 -36.523438 -15.964844 -34.378906 -16.175781 -32.058594 C -16.375 -29.640625 -16.421875 -27.191406 -16.261719 -24.667969 C -16.097656 -22.144531 -15.738281 -19.644531 -15.140625 -17.226562 C -14.910156 -16.160156 -14.554688 -14.90625 -14.046875 -13.621094 C -13.527344 -12.242188 -12.964844 -10.914062 -12.304688 -9.597656 C -11.632812 -8.1875 -10.816406 -6.839844 -9.972656 -5.648438 C -9.070312 -4.414062 -8.140625 -3.332031 -7.191406 -2.503906 C -5.511719 -1.015625 -3.871094 -0.269531 -2.34375 -0.410156 C -0.859375 -0.492188 0.480469 -0.957031 1.5625 -1.886719 Z M 1.5625 -1.886719 "/></g></g></g><g fill="#ff914d" fill-opacity="1"><g transform="translate(266.026308, 146.032045)"><g><path d="M 0.78125 -1.34375 C 1.972656 -2.1875 3.0625 -3.46875 3.9375 -5.273438 C 4.808594 -7.074219 5.394531 -9.191406 5.738281 -11.679688 C 6.035156 -14.109375 5.960938 -16.742188 5.554688 -19.632812 C 5.144531 -22.523438 4.222656 -25.550781 2.851562 -28.574219 C 2.9375 -27.886719 3.023438 -27.199219 3.050781 -26.554688 C 3.082031 -25.910156 3.113281 -25.265625 3.085938 -24.664062 C 3.058594 -23.265625 2.921875 -21.949219 2.675781 -20.722656 C 2.429688 -19.496094 2.15625 -18.464844 1.773438 -17.519531 C 1.40625 -16.476562 0.957031 -15.675781 0.371094 -15.152344 C -0.15625 -14.589844 -0.691406 -14.472656 -1.21875 -14.707031 C -1.789062 -14.886719 -2.285156 -15.273438 -2.773438 -16.011719 C -3.210938 -16.707031 -3.667969 -17.597656 -4.097656 -18.640625 C -4.511719 -19.585938 -4.886719 -20.585938 -5.214844 -21.644531 C -5.535156 -22.601562 -5.808594 -23.613281 -6.070312 -24.53125 C -6.277344 -25.402344 -6.460938 -26.078125 -6.609375 -26.457031 L -11.304688 -41.484375 L -7 -47.003906 L -7.355469 -49.851562 L -12.003906 -43.890625 L -13.902344 -49.988281 L -18.964844 -67.164062 C -19.59375 -66.589844 -20.324219 -66.449219 -21.046875 -66.65625 C -21.8125 -66.8125 -22.59375 -67.066406 -23.398438 -67.515625 C -24.1875 -67.867188 -24.980469 -68.214844 -25.8125 -68.511719 C -26.648438 -68.808594 -27.402344 -68.863281 -28.164062 -68.570312 C -28.085938 -68.332031 -27.949219 -68.050781 -27.859375 -67.710938 C -27.808594 -67.320312 -27.652344 -66.839844 -27.492188 -66.359375 L -26.238281 -62.277344 C -26.03125 -61.40625 -25.726562 -60.546875 -25.421875 -59.6875 C -25.160156 -58.769531 -24.894531 -57.855469 -24.632812 -56.941406 C -24.359375 -55.925781 -24.097656 -55.011719 -23.777344 -54.054688 C -23.460938 -53.097656 -23.1875 -52.082031 -22.867188 -51.125 C -21.5 -46.507812 -19.972656 -41.410156 -18.289062 -35.835938 L -21.730469 -31.421875 L -21.378906 -28.574219 L -17.589844 -33.429688 L -12.910156 -18.152344 L -11.835938 -14.292969 C -11.597656 -13.574219 -11.359375 -12.855469 -11.175781 -12.183594 C -10.996094 -11.507812 -10.757812 -10.789062 -10.53125 -10.167969 C -10.054688 -8.730469 -9.492188 -7.402344 -8.839844 -6.1875 C -8.234375 -4.917969 -7.554688 -3.851562 -6.691406 -2.914062 C -5.40625 -1.375 -4.105469 -0.539062 -2.835938 -0.347656 C -1.566406 -0.15625 -0.355469 -0.453125 0.78125 -1.34375 Z M 0.78125 -1.34375 "/></g></g></g><g fill="#ffde59" fill-opacity="1"><g transform="translate(120.929142, 330.504241)"><g><path d="M 4.550781 -10.386719 C 5.4375 -11.292969 6.382812 -12.503906 7.238281 -14.058594 C 8.105469 -15.511719 8.796875 -17.191406 9.308594 -19.101562 C 9.832031 -20.910156 10.039062 -22.878906 9.925781 -25.007812 C 9.867188 -27.097656 9.292969 -29.320312 8.300781 -31.691406 C 8.203125 -30.878906 8.144531 -30.125 7.992188 -29.359375 C 7.890625 -28.546875 7.695312 -27.726562 7.441406 -26.945312 C 6.578125 -23.449219 5.105469 -20.425781 3.039062 -17.777344 C 2.007812 -16.453125 0.796875 -15.355469 -0.507812 -14.597656 C -1.796875 -13.738281 -3.234375 -13.261719 -4.804688 -13.070312 C -6.375 -12.875 -8.007812 -13.171875 -9.800781 -13.949219 C -11.800781 -14.796875 -13.511719 -16.132812 -14.988281 -17.992188 C -16.464844 -19.855469 -17.738281 -22.09375 -18.753906 -24.660156 C -19.808594 -27.171875 -20.488281 -29.828125 -20.894531 -32.722656 C -21.289062 -35.515625 -21.335938 -38.300781 -21.085938 -41.125 C -20.824219 -43.847656 -20.1875 -46.371094 -19.230469 -48.734375 C -18.265625 -50.996094 -16.855469 -52.914062 -15.050781 -54.433594 C -13.371094 -55.789062 -11.75 -56.386719 -10.089844 -56.246094 C -8.46875 -56.046875 -6.898438 -55.441406 -5.265625 -54.347656 C -4.492188 -53.742188 -3.710938 -53.042969 -2.914062 -52.246094 C -2.117188 -51.445312 -1.460938 -50.578125 -0.804688 -49.710938 C -0.136719 -48.746094 0.433594 -47.769531 0.945312 -46.835938 C 1.515625 -45.859375 1.988281 -44.871094 2.304688 -43.914062 C 3.050781 -41.910156 3.433594 -40.015625 3.390625 -38.363281 C 3.398438 -36.667969 2.898438 -35.460938 1.878906 -34.835938 C 1.707031 -34.617188 1.445312 -34.730469 1.089844 -35.1875 C 0.8125 -35.402344 0.519531 -36.164062 0.175781 -37.316406 L -5.230469 -54.050781 L -9.105469 -49.085938 L -7.601562 -44.1875 C -8.980469 -45.261719 -10.261719 -45.550781 -11.546875 -45.042969 C -12.875 -44.480469 -13.84375 -43.464844 -14.503906 -41.9375 C -15.003906 -40.730469 -15.246094 -39.054688 -15.230469 -36.910156 C -15.214844 -34.769531 -15.03125 -32.496094 -14.589844 -30.109375 C -14.027344 -27.1875 -13.253906 -24.539062 -12.304688 -22.113281 C -11.902344 -21.265625 -11.441406 -20.375 -10.785156 -19.511719 C -10.074219 -18.601562 -9.390625 -17.886719 -8.628906 -17.382812 C -7.855469 -16.78125 -7.066406 -16.429688 -6.210938 -16.386719 C -5.402344 -16.285156 -4.609375 -16.734375 -3.921875 -17.617188 C -3.015625 -18.773438 -2.34375 -20.203125 -1.863281 -21.957031 C -1.382812 -23.710938 -1.324219 -25.265625 -1.660156 -26.769531 C -0.863281 -25.972656 -0.03125 -25.675781 0.910156 -25.742188 C 1.804688 -25.753906 2.640625 -26.253906 3.328125 -27.136719 C 4.644531 -28.597656 5.53125 -30.300781 6.011719 -32.054688 C 7.085938 -35.480469 7.0625 -39.316406 5.960938 -43.367188 C 4.820312 -47.367188 3.039062 -50.886719 0.664062 -53.980469 C -0.570312 -55.476562 -1.929688 -56.804688 -3.363281 -57.921875 C -4.800781 -59.042969 -6.339844 -59.796875 -7.996094 -60.292969 C -9.640625 -60.6875 -11.34375 -60.777344 -13.089844 -60.359375 C -14.832031 -59.945312 -16.503906 -58.941406 -18.101562 -57.347656 C -19.742188 -55.699219 -21.152344 -53.78125 -22.21875 -51.503906 C -23.28125 -49.230469 -24.027344 -46.792969 -24.609375 -44.230469 C -25.136719 -41.621094 -25.410156 -38.996094 -25.488281 -36.390625 C -25.507812 -33.746094 -25.316406 -31.378906 -24.949219 -29.230469 C -24.421875 -26.152344 -23.632812 -23.40625 -22.488281 -21.007812 C -21.386719 -18.550781 -20.140625 -16.511719 -18.71875 -14.691406 C -17.242188 -12.828125 -15.703125 -11.273438 -13.960938 -10.09375 C -12.261719 -8.855469 -10.558594 -7.96875 -8.804688 -7.488281 C -6.3125 -6.699219 -3.894531 -6.5 -1.5625 -6.988281 C 0.730469 -7.417969 2.78125 -8.570312 4.550781 -10.386719 Z M -5.824219 -24.960938 C -6.769531 -24.542969 -7.726562 -25.023438 -8.652344 -26.453125 C -9.183594 -27.136719 -9.65625 -28.125 -10.109375 -29.367188 C -10.5625 -30.605469 -10.953125 -32.152344 -11.390625 -34.09375 C -11.441406 -34.488281 -11.542969 -34.921875 -11.589844 -35.316406 C -11.640625 -35.710938 -11.742188 -36.144531 -11.804688 -36.636719 C -11.96875 -37.5625 -12.023438 -38.402344 -12.066406 -39.148438 C -12.0625 -39.945312 -11.953125 -40.65625 -11.785156 -41.324219 C -11.617188 -41.996094 -11.242188 -42.589844 -10.8125 -43.140625 C -10.242188 -43.761719 -9.597656 -43.789062 -8.847656 -43.382812 C -8.144531 -42.921875 -7.402344 -42.167969 -6.679688 -41.160156 L -4.488281 -33.5 C -4.304688 -32.824219 -4.164062 -32.09375 -4.011719 -31.265625 C -3.859375 -30.4375 -3.804688 -29.597656 -3.804688 -28.796875 C -3.796875 -27.902344 -3.992188 -27.082031 -4.257812 -26.398438 C -4.566406 -25.664062 -5.105469 -25.199219 -5.824219 -24.960938 Z M -5.824219 -24.960938 "/></g></g></g><g fill="#ffde59" fill-opacity="1"><g transform="translate(144.430293, 300.379884)"><g><path d="M 13.234375 -17.988281 L 13.230469 -17.640625 C 14.433594 -19.183594 15.199219 -21.074219 15.507812 -23.40625 C 15.832031 -25.640625 15.878906 -28.089844 15.617188 -30.597656 C 15.367188 -33.011719 14.867188 -35.441406 14.269531 -37.863281 C 13.671875 -40.28125 12.957031 -42.4375 12.238281 -44.242188 C 12.261719 -44.046875 12.230469 -43.894531 12.210938 -43.640625 C 12.191406 -43.390625 12.230469 -43.09375 12.222656 -42.746094 C 12.277344 -41.902344 12.285156 -41.007812 12.253906 -40.054688 C 12.277344 -39.0625 12.257812 -38.011719 12.195312 -36.90625 C 12.148438 -34.457031 11.984375 -32.542969 11.566406 -31.097656 C 11.410156 -30.328125 11.121094 -29.84375 10.796875 -29.65625 C 10.472656 -29.464844 10.097656 -29.667969 9.675781 -30.265625 C 9.210938 -30.804688 8.714844 -31.992188 8.210938 -33.625 L -0.0976562 -59.722656 L -6.164062 -51.941406 L -3.84375 -44.449219 C -4.949219 -45.3125 -5.960938 -45.835938 -7.035156 -46.050781 C -8.050781 -46.222656 -8.992188 -46.15625 -9.949219 -45.839844 C -10.894531 -45.425781 -11.761719 -44.769531 -12.5625 -43.972656 C -13.304688 -43.132812 -13.96875 -42.054688 -14.523438 -40.886719 C -14.90625 -39.941406 -15.261719 -38.800781 -15.441406 -37.433594 C -15.625 -36.066406 -15.75 -34.652344 -15.75 -33.058594 C -15.753906 -31.460938 -15.6875 -29.722656 -15.511719 -27.902344 C -15.335938 -26.078125 -15.117188 -24.308594 -14.789062 -22.457031 C -14.414062 -20.207031 -13.949219 -18.070312 -13.34375 -16.003906 C -12.726562 -13.835938 -12.039062 -11.875 -11.261719 -10.027344 C -10.699219 -8.699219 -9.925781 -7.300781 -8.859375 -5.9375 C -7.792969 -4.570312 -6.710938 -3.460938 -5.464844 -2.664062 C -4.207031 -1.773438 -2.957031 -1.332031 -1.699219 -1.234375 C -0.441406 -1.140625 0.734375 -1.734375 1.808594 -3.117188 C 3.273438 -4.992188 4.4375 -7.277344 5.101562 -9.953125 C 5.449219 -11.195312 5.640625 -12.464844 5.734375 -13.722656 C 5.828125 -14.980469 5.726562 -16.214844 5.4375 -17.324219 C 6.621094 -16.226562 7.929688 -15.738281 9.414062 -15.820312 C 10.855469 -15.851562 12.117188 -16.554688 13.234375 -17.988281 Z M -0.960938 -14.242188 C -1.625 -13.960938 -2.324219 -13.972656 -3.117188 -14.324219 C -3.90625 -14.675781 -4.648438 -15.429688 -5.4375 -16.582031 C -6.214844 -17.632812 -6.945312 -19.085938 -7.691406 -21.089844 C -8.382812 -23.046875 -9.035156 -25.511719 -9.648438 -28.476562 C -9.90625 -29.742188 -10.160156 -31.003906 -10.332031 -32.378906 C -10.542969 -33.699219 -10.605469 -34.988281 -10.664062 -36.277344 C -10.710938 -37.46875 -10.605469 -38.628906 -10.289062 -39.714844 C -10.019531 -40.746094 -9.484375 -41.660156 -8.792969 -42.542969 C -8.351562 -42.996094 -7.886719 -43.253906 -7.394531 -43.3125 C -6.890625 -43.277344 -6.375 -43.140625 -5.792969 -42.863281 C -5.253906 -42.53125 -4.703125 -42.101562 -4.125 -41.472656 C -3.550781 -40.847656 -2.972656 -40.21875 -2.429688 -39.441406 L -2.386719 -39.496094 L 1.082031 -27.558594 C 1.402344 -26.601562 1.644531 -25.433594 1.902344 -24.167969 C 2.113281 -22.847656 2.230469 -21.515625 2.191406 -20.214844 C 2.164062 -18.816406 1.917969 -17.589844 1.449219 -16.535156 C 0.992188 -15.378906 0.191406 -14.582031 -0.960938 -14.242188 Z M -0.960938 -14.242188 "/></g></g></g><g fill="#ffde59" fill-opacity="1"><g transform="translate(166.683193, 271.855566)"><g><path d="M -13.285156 -24.386719 L -3.824219 4.5625 L 2.117188 -3.054688 L -6.945312 -27.960938 C -7.554688 -29.683594 -7.894531 -31.632812 -8.066406 -33.808594 C -8.082031 -34.355469 -8.125 -35.097656 -8.148438 -36.089844 C -8.113281 -37.042969 -8.09375 -38.089844 -7.933594 -39.207031 C -7.816406 -40.269531 -7.585938 -41.246094 -7.359375 -42.222656 C -7.128906 -43.195312 -6.777344 -43.988281 -6.261719 -44.648438 C -5.734375 -45.214844 -5.070312 -45.496094 -4.371094 -45.480469 C -3.617188 -45.425781 -2.714844 -44.988281 -1.609375 -44.128906 C -1.058594 -43.699219 -0.789062 -43.132812 -0.648438 -42.402344 C -0.507812 -41.671875 -0.578125 -41.015625 -0.789062 -40.289062 C -0.996094 -39.566406 -1.304688 -38.832031 -1.820312 -38.167969 C -2.339844 -37.507812 -2.976562 -37.027344 -3.738281 -36.734375 C -3.113281 -35.714844 -2.527344 -34.988281 -1.976562 -34.558594 C -1.421875 -34.128906 -0.796875 -33.90625 -0.25 -33.925781 C 0.308594 -33.84375 0.839844 -33.960938 1.308594 -34.21875 C 1.777344 -34.472656 2.1875 -34.773438 2.53125 -35.214844 C 3.417969 -36.121094 3.941406 -37.136719 4.078125 -38.449219 C 4.171875 -39.707031 4.011719 -40.984375 3.589844 -42.378906 C 3.183594 -43.671875 2.578125 -44.945312 1.730469 -46.136719 C 0.886719 -47.328125 -0.0351562 -48.3125 -1.082031 -49.128906 C -2.117188 -49.847656 -3.226562 -50.359375 -4.355469 -50.621094 C -5.527344 -50.824219 -6.652344 -50.636719 -7.671875 -50.011719 C -8.636719 -49.34375 -9.410156 -48.351562 -9.910156 -47.140625 C -10.355469 -45.890625 -10.742188 -44.59375 -10.921875 -43.226562 C -11.089844 -41.761719 -11.160156 -40.304688 -11.1875 -38.90625 C -11.160156 -37.464844 -11.113281 -36.273438 -11.089844 -35.277344 C -12.140625 -36.542969 -13.246094 -37.40625 -14.355469 -37.917969 C -15.410156 -38.382812 -16.449219 -38.304688 -17.371094 -37.695312 C -18.050781 -37.160156 -18.644531 -36.289062 -19.140625 -35.082031 C -19.640625 -33.875 -20.035156 -32.230469 -20.285156 -30.203125 C -19.222656 -30.085938 -18.402344 -29.886719 -17.675781 -29.679688 C -16.953125 -29.46875 -16.359375 -29.09375 -15.804688 -28.664062 C -15.296875 -28.175781 -14.820312 -27.539062 -14.441406 -26.886719 C -14.046875 -26.136719 -13.644531 -25.289062 -13.285156 -24.386719 Z M -20.382812 -30.191406 L -20.304688 -29.953125 L -20.285156 -30.203125 Z M -20.382812 -30.191406 "/></g></g></g><g fill="#ffde59" fill-opacity="1"><g transform="translate(185.492637, 247.745155)"><g><path d="M 14.785156 -19.976562 C 15.613281 -20.925781 16.167969 -22.089844 16.503906 -23.429688 C 16.835938 -24.765625 17.015625 -26.136719 17.019531 -27.730469 C 17.03125 -29.226562 16.9375 -30.8125 16.742188 -32.382812 C 16.546875 -33.957031 16.398438 -35.582031 16.191406 -37.25 C 15.851562 -40.003906 15.425781 -42.640625 14.890625 -45.367188 C 14.355469 -48.09375 13.699219 -50.554688 12.960938 -52.910156 L 13.84375 -53.015625 L 12.324219 -54.824219 C 12.097656 -55.445312 11.816406 -56.109375 11.59375 -56.726562 C 11.367188 -57.347656 11.042969 -57.957031 10.773438 -58.523438 C 10.246094 -59.554688 9.554688 -60.714844 8.738281 -62.058594 C 7.882812 -63.351562 6.90625 -64.375 5.914062 -65.152344 C 4.835938 -65.816406 4.125 -65.925781 3.722656 -65.527344 C 3.324219 -65.128906 3.183594 -64.265625 3.339844 -62.988281 C 3.496094 -61.710938 3.960938 -60.371094 4.636719 -58.960938 C 5.320312 -57.449219 6.289062 -56.074219 7.484375 -54.875 C 8.636719 -53.621094 10.0625 -52.949219 11.726562 -52.804688 C 12.496094 -50.605469 13.136719 -48.242188 13.539062 -45.800781 C 13.984375 -43.410156 14.109375 -41.183594 13.917969 -39.113281 C 13.679688 -36.992188 13.339844 -35.304688 12.855469 -33.996094 C 12.324219 -32.636719 11.746094 -31.667969 11.074219 -31.035156 C 10.363281 -30.347656 9.566406 -30.351562 8.695312 -30.941406 C 7.878906 -31.488281 7.039062 -33.03125 6.289062 -35.480469 L -0.9375 -59.667969 L -7.007812 -51.886719 L 0.5 -26.238281 C 0.683594 -25.5625 0.878906 -24.789062 1 -23.808594 C 1.175781 -22.78125 1.296875 -21.800781 1.320312 -20.804688 C 1.355469 -19.714844 1.222656 -18.75 0.984375 -17.871094 C 0.742188 -16.996094 0.3125 -16.441406 -0.339844 -16.0625 C -0.707031 -15.820312 -1.15625 -15.8125 -1.542969 -16.113281 C -1.929688 -16.414062 -2.28125 -16.871094 -2.664062 -17.523438 C -3.042969 -18.171875 -3.378906 -18.878906 -3.738281 -19.78125 C -4.089844 -20.585938 -4.351562 -21.5 -4.667969 -22.460938 L -6.441406 -27.925781 C -7.007812 -29.699219 -7.621094 -31.417969 -8.207031 -32.941406 C -8.78125 -34.367188 -9.585938 -35.613281 -10.515625 -36.695312 C -11.488281 -37.722656 -12.65625 -38.277344 -14.066406 -38.402344 C -15.464844 -38.425781 -16.761719 -38.019531 -17.953125 -37.171875 C -19.144531 -36.328125 -19.996094 -35.125 -20.445312 -33.523438 C -19.878906 -33.792969 -19.332031 -33.8125 -18.804688 -33.578125 C -18.222656 -33.300781 -17.671875 -32.871094 -17.207031 -32.328125 C -16.726562 -31.691406 -16.347656 -31.039062 -15.96875 -30.386719 C -15.632812 -29.679688 -15.363281 -29.117188 -15.257812 -28.679688 L -10.089844 -9.023438 C -10.015625 -8.4375 -9.789062 -7.816406 -9.550781 -7.097656 C -9.3125 -6.378906 -9.019531 -5.617188 -8.683594 -4.910156 C -7.644531 -2.945312 -6.449219 -1.746094 -5.140625 -1.257812 C -3.78125 -0.730469 -2.492188 -0.789062 -1.207031 -1.296875 C 0.0351562 -1.75 1.128906 -2.582031 2.074219 -3.796875 C 3.019531 -5.011719 3.550781 -6.371094 3.664062 -7.882812 C 3.832031 -9.347656 3.90625 -11.152344 3.863281 -13.140625 C 3.816406 -15.128906 3.589844 -17.347656 3.203125 -19.691406 C 4.113281 -18.359375 5.164062 -17.539062 6.304688 -17.183594 C 7.445312 -16.824219 8.605469 -16.71875 9.671875 -16.949219 C 10.796875 -17.140625 11.796875 -17.511719 12.71875 -18.125 C 13.640625 -18.738281 14.3125 -19.367188 14.785156 -19.976562 Z M 14.785156 -19.976562 "/></g></g></g><g fill="#ffde59" fill-opacity="1"><g transform="translate(210.758558, 215.358673)"><g><path d="M 1.582031 -2.9375 C 2.441406 -4.042969 3.101562 -5.570312 3.460938 -7.507812 C 3.820312 -9.445312 4.011719 -11.515625 3.941406 -13.699219 C 3.882812 -15.789062 3.628906 -17.851562 3.277344 -19.902344 C 2.921875 -21.949219 2.464844 -23.640625 1.792969 -25.050781 C 4.359375 -21.628906 6.570312 -19.460938 8.417969 -18.640625 C 10.429688 -17.691406 12.082031 -17.648438 13.273438 -18.492188 C 14.335938 -19.171875 15.183594 -20.375 15.664062 -22.128906 C 16.203125 -23.839844 16.4375 -25.964844 16.34375 -28.34375 C 16.261719 -30.628906 15.847656 -33.171875 15.003906 -35.957031 C 14.21875 -38.703125 12.980469 -41.441406 11.4375 -44.242188 L 11.535156 -43.457031 C 11.585938 -43.066406 11.589844 -42.617188 11.664062 -42.027344 C 11.691406 -41.382812 11.777344 -40.695312 11.808594 -40.050781 C 11.792969 -39.351562 11.835938 -38.609375 11.820312 -37.910156 C 11.820312 -36.3125 11.804688 -34.816406 11.722656 -33.460938 C 11.597656 -32.046875 11.371094 -31.070312 10.984375 -30.574219 C 10.75 -30.046875 10.355469 -30 9.890625 -30.539062 C 9.449219 -30.882812 8.867188 -31.960938 8.257812 -33.679688 L -7.082031 -83.191406 C -7.710938 -82.617188 -8.441406 -82.476562 -9.164062 -82.683594 C -9.890625 -82.894531 -10.667969 -83.148438 -11.472656 -83.597656 C -12.261719 -83.949219 -13.054688 -84.300781 -13.886719 -84.59375 C -14.722656 -84.890625 -15.476562 -84.945312 -16.238281 -84.652344 L -16.074219 -84.523438 C -15.652344 -83.128906 -15.183594 -81.34375 -14.523438 -79.230469 C -13.863281 -77.117188 -13.125 -74.765625 -12.371094 -72.316406 C -11.960938 -71.019531 -11.609375 -69.769531 -11.199219 -68.472656 C -10.789062 -67.175781 -10.378906 -65.882812 -9.972656 -64.585938 C -9.550781 -63.191406 -9.140625 -61.894531 -8.730469 -60.601562 C -8.363281 -59.25 -8.011719 -57.996094 -7.613281 -56.800781 C -6.792969 -54.207031 -6.109375 -51.898438 -5.5625 -49.871094 L -4.011719 -44.578125 C -4.121094 -44.664062 -4.242188 -44.851562 -4.464844 -45.023438 L -5.070312 -45.496094 C -5.457031 -45.796875 -5.886719 -46.042969 -6.414062 -46.277344 C -6.941406 -46.511719 -7.414062 -46.703125 -8.027344 -46.824219 C -8.585938 -46.90625 -9.21875 -46.777344 -9.9375 -46.539062 C -10.644531 -46.203125 -11.324219 -45.671875 -12.070312 -44.832031 C -13.585938 -42.996094 -14.707031 -40.765625 -15.398438 -38.285156 C -16.089844 -35.808594 -16.460938 -33.167969 -16.539062 -30.566406 C -16.605469 -27.867188 -16.429688 -25.246094 -16.015625 -22.703125 C -15.648438 -20.105469 -15.074219 -17.882812 -14.4375 -15.96875 C -13.550781 -13.234375 -12.492188 -10.722656 -11.21875 -8.488281 C -9.988281 -6.195312 -8.582031 -4.476562 -6.992188 -3.324219 C -4.894531 -1.6875 -3.203125 -0.902344 -1.773438 -1.027344 C -0.386719 -1.097656 0.734375 -1.734375 1.582031 -2.9375 Z M -2.8125 -19.148438 C -3.386719 -18.527344 -4.074219 -18.445312 -5.019531 -18.828125 C -5.433594 -18.972656 -5.988281 -19.40625 -6.5625 -20.03125 C -7.140625 -20.660156 -7.726562 -21.382812 -8.242188 -22.316406 C -8.753906 -23.25 -9.324219 -24.226562 -9.808594 -25.316406 C -10.292969 -26.402344 -10.71875 -27.445312 -11.007812 -28.558594 C -11.609375 -30.625 -11.941406 -32.480469 -12.046875 -34.164062 C -12.15625 -35.84375 -11.988281 -37.3125 -11.699219 -38.59375 C -11.394531 -39.777344 -10.914062 -40.734375 -10.300781 -41.410156 C -9.628906 -42.039062 -8.886719 -42.082031 -8.003906 -41.394531 C -7.066406 -40.660156 -6.257812 -38.964844 -5.636719 -36.351562 C -4.769531 -37.007812 -4.199219 -37.625 -3.988281 -38.347656 C -3.722656 -39.03125 -3.539062 -39.949219 -3.375 -41.066406 L -3.277344 -41.078125 C -2.839844 -39.140625 -2.386719 -37.101562 -1.925781 -34.964844 C -1.503906 -32.773438 -1.25 -30.710938 -1.105469 -28.734375 C -0.949219 -26.660156 -0.957031 -24.710938 -1.199219 -23.039062 C -1.441406 -21.363281 -1.929688 -20.054688 -2.8125 -19.148438 Z M -2.8125 -19.148438 "/></g></g></g><g fill="#ffde59" fill-opacity="1"><g transform="translate(233.700149, 185.951573)"><g><path d="M 3.5625 -4.679688 C 4.71875 -6.617188 5.441406 -9.246094 5.78125 -12.53125 C 6.125 -15.816406 5.835938 -19.769531 4.925781 -24.292969 C 4.550781 -26.539062 4.0625 -28.871094 3.378906 -31.183594 C 2.75 -33.449219 2.035156 -35.601562 1.234375 -37.648438 C 0.445312 -39.59375 -0.472656 -41.375 -1.367188 -42.960938 C -2.261719 -44.546875 -3.214844 -45.824219 -4.191406 -46.851562 C -5.152344 -47.777344 -6.164062 -48.300781 -7.140625 -48.53125 C -8.105469 -48.660156 -9.0625 -48.34375 -9.972656 -47.632812 C -11.097656 -46.644531 -11.738281 -45.371094 -11.992188 -43.792969 C -12.1875 -42.171875 -12.105469 -40.6875 -11.683594 -39.292969 C -11.25 -37.800781 -10.601562 -36.585938 -9.640625 -35.65625 C -8.71875 -34.671875 -7.675781 -34.304688 -6.457031 -34.503906 C -7.007812 -34.933594 -7.441406 -35.628906 -7.789062 -36.433594 C -8.128906 -37.140625 -8.421875 -37.902344 -8.519531 -38.6875 C -8.613281 -39.472656 -8.65625 -40.214844 -8.546875 -40.929688 C -8.421875 -41.542969 -8.132812 -42.027344 -7.675781 -42.382812 C -7.265625 -42.679688 -6.761719 -42.644531 -6.265625 -42.257812 C -5.757812 -41.769531 -5.222656 -41.089844 -4.613281 -40.167969 C -3.988281 -39.148438 -3.371094 -37.777344 -2.769531 -36.15625 C -2.171875 -34.535156 -1.65625 -32.804688 -1.1875 -31.015625 C -0.707031 -29.132812 -0.378906 -27.277344 -0.160156 -25.507812 C 0.113281 -23.699219 0.167969 -22.058594 0.0859375 -20.703125 C 0.015625 -19.25 -0.296875 -18.164062 -0.804688 -17.402344 C -1.351562 -16.585938 -2.167969 -16.335938 -3.199219 -16.609375 C -4.425781 -16.855469 -5.75 -17.886719 -7.117188 -19.664062 C -8.480469 -21.441406 -9.835938 -23.914062 -11.089844 -27.199219 C -11.664062 -28.625 -12.242188 -30.5 -12.882812 -32.863281 C -13.523438 -35.226562 -14.203125 -37.886719 -14.960938 -40.785156 C -14.34375 -42.257812 -13.863281 -44.011719 -13.492188 -45.851562 C -13.121094 -47.691406 -12.804688 -49.578125 -12.652344 -51.589844 C -12.492188 -53.503906 -12.382812 -55.460938 -12.429688 -57.449219 C -12.476562 -59.441406 -12.609375 -61.316406 -12.839844 -63.183594 C -13.160156 -65.386719 -13.601562 -67.328125 -14.242188 -68.894531 C -14.832031 -70.417969 -15.492188 -71.730469 -16.3125 -72.726562 C -17.121094 -73.625 -17.949219 -74.269531 -18.894531 -74.652344 C -19.839844 -75.035156 -20.703125 -75.175781 -21.585938 -75.066406 C -22.460938 -74.859375 -23.308594 -74.457031 -24.128906 -73.855469 C -24.953125 -73.257812 -25.597656 -72.429688 -26.175781 -71.460938 C -26.742188 -70.390625 -27.144531 -69.195312 -27.367188 -67.773438 C -27.589844 -66.347656 -27.648438 -64.796875 -27.398438 -63.179688 C -26.917969 -59.699219 -26.25 -55.894531 -25.445312 -51.804688 C -24.640625 -47.714844 -23.78125 -43.582031 -22.769531 -39.421875 C -21.800781 -35.203125 -20.796875 -31.136719 -19.722656 -27.28125 C -18.691406 -23.371094 -17.609375 -19.863281 -16.589844 -16.847656 C -15.160156 -12.539062 -13.53125 -9.046875 -11.730469 -6.578125 C -9.875 -4.066406 -8.019531 -2.351562 -6.105469 -1.390625 C -4.191406 -0.429688 -2.417969 -0.199219 -0.699219 -0.8125 C 1.019531 -1.421875 2.460938 -2.695312 3.5625 -4.679688 Z M -16.144531 -45.523438 L -16.1875 -45.46875 C -17.433594 -49.105469 -18.441406 -52.820312 -19.207031 -56.613281 C -19.976562 -60.40625 -20.714844 -64.355469 -21.375 -68.511719 C -21.546875 -69.886719 -21.316406 -70.863281 -20.777344 -71.328125 C -20.40625 -71.574219 -19.90625 -71.535156 -19.320312 -71.257812 C -18.683594 -70.9375 -18.078125 -70.464844 -17.488281 -69.738281 C -16.886719 -68.917969 -16.265625 -67.898438 -15.8125 -66.65625 C -15.304688 -65.371094 -14.96875 -63.867188 -14.859375 -62.1875 C -14.667969 -60.613281 -14.667969 -59.019531 -14.714844 -57.367188 C -14.757812 -55.71875 -14.816406 -54.164062 -14.984375 -52.699219 C -15.140625 -51.132812 -15.265625 -49.722656 -15.511719 -48.492188 C -15.707031 -47.222656 -15.933594 -46.25 -16.144531 -45.523438 Z M -16.144531 -45.523438 "/></g></g></g><g fill="#ffde59" fill-opacity="1"><g transform="translate(250.701782, 164.158459)"><g><path d="M 1.5625 -1.886719 C 2.699219 -2.777344 3.632812 -4.089844 4.367188 -5.824219 C 5.054688 -7.503906 5.570312 -9.414062 5.804688 -11.535156 C 6.054688 -13.5625 6.09375 -15.660156 5.871094 -17.878906 C 5.65625 -19.996094 5.207031 -22.035156 4.460938 -24.035156 C 5.355469 -24.046875 6.019531 -24.328125 6.492188 -24.933594 C 6.96875 -25.542969 7.273438 -26.277344 7.363281 -27.1875 C 7.503906 -28.050781 7.535156 -29.003906 7.347656 -30.125 C 7.171875 -31.152344 6.984375 -32.273438 6.695312 -33.386719 C 6.421875 -34.398438 6.160156 -35.316406 5.796875 -36.21875 C 5.394531 -37.066406 5.058594 -37.773438 4.746094 -38.28125 L 4.59375 -38.3125 C 4.617188 -38.117188 4.640625 -37.917969 4.6875 -37.527344 C 4.738281 -37.132812 4.796875 -36.640625 4.871094 -36.054688 C 4.929688 -34.765625 4.988281 -33.476562 4.9375 -32.273438 C 4.945312 -31.027344 4.769531 -30.007812 4.515625 -29.226562 C 4.222656 -28.394531 3.742188 -28.234375 2.925781 -28.78125 C 2.699219 -29.402344 2.476562 -30.023438 2.207031 -30.589844 C 1.9375 -31.152344 1.625 -31.664062 1.355469 -32.226562 C 0.148438 -34.324219 -0.996094 -35.925781 -2.125 -36.984375 C -3.308594 -38.085938 -4.195312 -38.421875 -4.738281 -37.957031 C -5.363281 -37.382812 -5.648438 -36.449219 -5.503906 -35.269531 C -5.34375 -33.992188 -4.9375 -32.699219 -4.273438 -31.382812 C -3.578125 -29.773438 -2.597656 -28.300781 -1.390625 -27.003906 C -0.171875 -25.609375 1.03125 -24.757812 2.226562 -24.359375 C 2.179688 -21.910156 1.875 -19.925781 1.371094 -18.367188 C 0.867188 -16.808594 0.269531 -15.589844 -0.53125 -14.792969 C -1.230469 -14.007812 -2.023438 -13.5625 -2.921875 -13.550781 C -3.816406 -13.539062 -4.707031 -13.878906 -5.644531 -14.609375 C -6.570312 -15.242188 -7.5 -16.324219 -8.328125 -17.769531 C -9.195312 -19.15625 -10.027344 -21.050781 -10.757812 -23.304688 C -11.460938 -25.359375 -11.933594 -27.59375 -12.140625 -30.0625 C -12.386719 -32.476562 -12.351562 -35.023438 -12.078125 -37.648438 C -11.777344 -39.632812 -11.023438 -40.820312 -9.9375 -41.304688 C -9.359375 -41.476562 -8.757812 -41.449219 -8.121094 -41.128906 C -7.484375 -40.808594 -6.875 -40.335938 -6.277344 -39.511719 C -5.925781 -41.101562 -6.082031 -42.378906 -6.738281 -43.246094 C -7.335938 -44.070312 -8.097656 -44.574219 -9.019531 -44.757812 C -9.632812 -44.882812 -10.222656 -44.808594 -10.796875 -44.636719 C -11.417969 -44.414062 -11.929688 -44.101562 -12.316406 -43.601562 C -13.433594 -42.167969 -14.277344 -40.519531 -14.933594 -38.542969 C -15.53125 -36.523438 -15.964844 -34.378906 -16.175781 -32.058594 C -16.375 -29.640625 -16.421875 -27.191406 -16.261719 -24.667969 C -16.097656 -22.144531 -15.738281 -19.644531 -15.140625 -17.226562 C -14.910156 -16.160156 -14.554688 -14.90625 -14.046875 -13.621094 C -13.527344 -12.242188 -12.964844 -10.914062 -12.304688 -9.597656 C -11.632812 -8.1875 -10.816406 -6.839844 -9.972656 -5.648438 C -9.070312 -4.414062 -8.140625 -3.332031 -7.191406 -2.503906 C -5.511719 -1.015625 -3.871094 -0.269531 -2.34375 -0.410156 C -0.859375 -0.492188 0.480469 -0.957031 1.5625 -1.886719 Z M 1.5625 -1.886719 "/></g></g></g><g fill="#ffde59" fill-opacity="1"><g transform="translate(266.32603, 144.130911)"><g><path d="M 0.78125 -1.34375 C 1.972656 -2.1875 3.0625 -3.46875 3.9375 -5.273438 C 4.808594 -7.074219 5.394531 -9.191406 5.738281 -11.679688 C 6.035156 -14.109375 5.960938 -16.742188 5.554688 -19.632812 C 5.144531 -22.523438 4.222656 -25.550781 2.851562 -28.574219 C 2.9375 -27.886719 3.023438 -27.199219 3.050781 -26.554688 C 3.082031 -25.910156 3.113281 -25.265625 3.085938 -24.664062 C 3.058594 -23.265625 2.921875 -21.949219 2.675781 -20.722656 C 2.429688 -19.496094 2.15625 -18.464844 1.773438 -17.519531 C 1.40625 -16.476562 0.957031 -15.675781 0.371094 -15.152344 C -0.15625 -14.589844 -0.691406 -14.472656 -1.21875 -14.707031 C -1.789062 -14.886719 -2.285156 -15.273438 -2.773438 -16.011719 C -3.210938 -16.707031 -3.667969 -17.597656 -4.097656 -18.640625 C -4.511719 -19.585938 -4.886719 -20.585938 -5.214844 -21.644531 C -5.535156 -22.601562 -5.808594 -23.613281 -6.070312 -24.53125 C -6.277344 -25.402344 -6.460938 -26.078125 -6.609375 -26.457031 L -11.304688 -41.484375 L -7 -47.003906 L -7.355469 -49.851562 L -12.003906 -43.890625 L -13.902344 -49.988281 L -18.964844 -67.164062 C -19.59375 -66.589844 -20.324219 -66.449219 -21.046875 -66.65625 C -21.8125 -66.8125 -22.59375 -67.066406 -23.398438 -67.515625 C -24.1875 -67.867188 -24.980469 -68.214844 -25.8125 -68.511719 C -26.648438 -68.808594 -27.402344 -68.863281 -28.164062 -68.570312 C -28.085938 -68.332031 -27.949219 -68.050781 -27.859375 -67.710938 C -27.808594 -67.320312 -27.652344 -66.839844 -27.492188 -66.359375 L -26.238281 -62.277344 C -26.03125 -61.40625 -25.726562 -60.546875 -25.421875 -59.6875 C -25.160156 -58.769531 -24.894531 -57.855469 -24.632812 -56.941406 C -24.359375 -55.925781 -24.097656 -55.011719 -23.777344 -54.054688 C -23.460938 -53.097656 -23.1875 -52.082031 -22.867188 -51.125 C -21.5 -46.507812 -19.972656 -41.410156 -18.289062 -35.835938 L -21.730469 -31.421875 L -21.378906 -28.574219 L -17.589844 -33.429688 L -12.910156 -18.152344 L -11.835938 -14.292969 C -11.597656 -13.574219 -11.359375 -12.855469 -11.175781 -12.183594 C -10.996094 -11.507812 -10.757812 -10.789062 -10.53125 -10.167969 C -10.054688 -8.730469 -9.492188 -7.402344 -8.839844 -6.1875 C -8.234375 -4.917969 -7.554688 -3.851562 -6.691406 -2.914062 C -5.40625 -1.375 -4.105469 -0.539062 -2.835938 -0.347656 C -1.566406 -0.15625 -0.355469 -0.453125 0.78125 -1.34375 Z M 0.78125 -1.34375 "/></g></g></g></svg>